<svg version="1.1" id="Layer_1" xmlns="http://www.w3.org/2000/svg" xmlns:xlink="http://www.w3.org/1999/xlink" x="0px" y="0px" viewBox="0 0 32 32" style="enable-background:new 0 0 32 32;" xml:space="preserve" width="32"  height="32" >
<style type="text/css">
	.st0{fill:none;}
	.st1{fill:none;stroke:#323232;stroke-width:1.5;stroke-linecap:round;stroke-linejoin:round;}
</style>
<title>Instagram</title>
<g id="Final">
	<g id="Snapp.ir--about-us" transform="translate(-162.000000, -1857.000000)">
		<g id="Instagram" transform="translate(162.000000, 1857.000000)">
			<polygon id="Path_3_" class="st0" points="0,32 0,0 32,0 32,32 			" fill="none"></polygon>
			<path class="st1" d="M24.3,24H7.7c-2,0-3.7-1.6-3.7-3.7v-8.8C4,9.6,5.6,8,7.7,8h16.7c2,0,3.7,1.6,3.7,3.7v8.8
				C28,22.4,26.4,24,24.3,24z" stroke="#323232" fill="none" stroke-width="1.5px"></path>
		</g>
	</g>
</g>
<path class="st1" d="M18.6,16.7l-4.1,2.4c-0.6,0.3-1.2-0.1-1.2-0.7v-4.7c0-0.6,0.7-1,1.2-0.7l4.1,2.4C19.1,15.6,19.1,16.4,18.6,16.7
	z" stroke="#323232" fill="none" stroke-width="1.5px"></path>
</svg>