<svg xmlns:xlink="http://www.w3.org/1999/xlink" width="32" height="32" viewBox="0 0 32 32" xmlns="http://www.w3.org/2000/svg"><g fill="none" fill-rule="evenodd"><path stroke="#323232" stroke-linecap="round" stroke-linejoin="round" stroke-width="1.5px" d="M10 4h12a6 6 0 016 6v12a6 6 0 01-6 6H10a6 6 0 01-6-6V10a6 6 0 016-6h0zM10.8 14.8V22" fill="none"></path><g stroke="#323232" stroke-linecap="round" stroke-linejoin="round" stroke-width="1.5px" fill="none"><path d="M15.6 22v-4.2a3 3 0 013-3h0a3 3 0 013 3V22M10.8 10.5c-.1 0-.3 0-.3.3a.3.3 0 10.3-.3" stroke="#323232" fill="none" stroke-width="1.5px"></path></g><path d="M0 32V0h32v32z" fill="none"></path></g></svg>